<svg viewBox="-76 0 512 512" xmlns="http://www.w3.org/2000/svg"><path d="m255.253906 60.007812c-.285156-.003906-.570312-.007812-.855468-.007812h-75.910157c-6.964843-34.191406-37.269531-60-73.488281-60s-66.523438 25.808594-73.492188 60h-31.507812v452h360v-353.214844l-98.683594-98.675781zm14.746094 51.210938 38.785156 38.78125h-38.785156zm-165-81.21875c19.554688 0 36.226562 12.542969 42.421875 30h-84.84375c6.195313-17.457031 22.867187-30 42.421875-30zm-75 452v-392h120v135c0 8.269531-6.730469 15-15 15s-15-6.730469-15-15v-105h-30v105c0 24.8125 20.1875 45 45 45s45-20.1875 45-45v-135h60v90h90v302zm0 0"/><path d="m60 301h240v30h-240zm0 0"/><path d="m60 361h240v30h-240zm0 0"/><path d="m60 421h240v30h-240zm0 0"/></svg>